<svg width="47" height="51" viewBox="0 0 47 51" fill="none" xmlns="http://www.w3.org/2000/svg">
<path fill-rule="evenodd" clip-rule="evenodd" d="M23.4999 0.583252C10.843 0.583252 0.583252 10.843 0.583252 23.4999C0.583252 36.1568 10.843 46.4166 23.4999 46.4166C36.1568 46.4166 46.4166 36.1568 46.4166 23.4999C46.4166 10.843 36.1568 0.583252 23.4999 0.583252ZM15.4791 17.7708C15.4791 16.7174 15.6865 15.6744 16.0896 14.7013C16.4927 13.7282 17.0835 12.844 17.8283 12.0992C18.5731 11.3544 19.4573 10.7636 20.4305 10.3605C21.4036 9.95738 22.4466 9.74992 23.4999 9.74992C24.5532 9.74992 25.5962 9.95738 26.5694 10.3605C27.5425 10.7636 28.4267 11.3544 29.1715 12.0992C29.9163 12.844 30.5071 13.7282 30.9102 14.7013C31.3133 15.6744 31.5208 16.7174 31.5208 17.7708C31.5208 19.898 30.6757 21.9381 29.1715 23.4423C27.6673 24.9465 25.6272 25.7916 23.4999 25.7916C21.3727 25.7916 19.3325 24.9465 17.8283 23.4423C16.3241 21.9381 15.4791 19.898 15.4791 17.7708ZM37.8412 34.9216C36.1251 37.0788 33.9442 38.8208 31.461 40.0176C28.9778 41.2143 26.2565 41.835 23.4999 41.8332C20.7434 41.835 18.022 41.2143 15.5388 40.0176C13.0556 38.8208 10.8747 37.0788 9.15867 34.9216C12.8735 32.2564 17.9426 30.3749 23.4999 30.3749C29.0572 30.3749 34.1264 32.2564 37.8412 34.9216Z" fill="black"/>
</svg>
