<svg width="10" height="12" viewBox="0 0 10 12" fill="none" xmlns="http://www.w3.org/2000/svg">
<path d="M7.2575 2.75608L7.38958 2.76254C8.17981 2.81474 9.28724 3.30769 9.88074 4.1542C9.92418 4.21617 9.95383 4.28629 9.96779 4.36008C9.98175 4.43386 9.97972 4.50967 9.96182 4.58264C9.94392 4.65562 9.91054 4.72414 9.86384 4.78381C9.81715 4.84348 9.75815 4.89298 9.69065 4.92914C9.66301 4.94421 9.48507 5.01417 9.416 5.04592C9.27528 5.10988 9.1416 5.18759 9.01701 5.27786C8.67771 5.52595 8.49314 5.82086 8.49645 6.18949C8.50198 6.66576 8.68379 6.97197 8.99767 7.18292C9.11261 7.25988 9.23861 7.31908 9.36571 7.36052C9.43534 7.38366 9.60112 7.42294 9.61107 7.42617C9.71826 7.46366 9.81093 7.53248 9.87642 7.62322C9.9419 7.71397 9.97699 7.8222 9.9769 7.93311C9.9769 9.34361 8.29696 11.3671 7.0558 11.3671C6.61924 11.3671 6.35288 11.3181 5.95997 11.1975L5.90582 11.1809C5.64996 11.1023 5.51788 11.0775 5.27971 11.0775C4.99235 11.0775 4.80281 11.1098 4.44085 11.2051L4.33198 11.2336C4.01423 11.3159 3.79926 11.3552 3.50307 11.3671C1.98394 11.3671 0.58252 8.62625 0.58252 6.48494C0.58252 4.40229 1.56948 2.76092 3.50362 2.76092C3.66774 2.76092 3.83408 2.78514 4.00594 2.82981C4.22864 2.88739 4.43366 2.96973 4.72212 3.10319C5.15703 3.30446 5.246 3.33998 5.27971 3.33998H5.28855C5.30513 3.33836 5.35928 3.31468 5.87211 3.09404C6.45843 2.84272 6.90217 2.72541 7.38958 2.76254L7.25695 2.75608H7.2575Z" fill="black"/>
<path d="M6.66123 0.0658569C6.8078 0.0658569 6.94835 0.122555 7.05199 0.223478C7.15562 0.324401 7.21385 0.461283 7.21385 0.60401C7.21385 1.03219 7.03918 1.44283 6.72828 1.7456C6.41737 2.04837 5.9957 2.21847 5.55601 2.21847C5.40945 2.21847 5.26889 2.16177 5.16526 2.06085C5.06162 1.95992 5.0034 1.82304 5.0034 1.68031C5.0034 1.25213 5.17807 0.84149 5.48897 0.538721C5.79987 0.235951 6.22155 0.0658569 6.66123 0.0658569Z" fill="black"/>
</svg>
