<svg width="169" height="40" viewBox="0 0 169 40" fill="none" xmlns="http://www.w3.org/2000/svg">
<path d="M34.2033 13C33.305 13.4084 32.3366 13.6767 31.3333 13.805C32.36 13.1867 33.1533 12.2067 33.5266 11.0284C32.5583 11.6117 31.485 12.02 30.3533 12.2534C29.4316 11.25 28.1366 10.6667 26.6666 10.6667C23.925 10.6667 21.685 12.9067 21.685 15.6717C21.685 16.0684 21.7316 16.4534 21.8133 16.815C17.66 16.605 13.9616 14.61 11.5 11.5884C11.0683 12.3234 10.8233 13.1867 10.8233 14.0967C10.8233 15.835 11.6983 17.375 13.0516 18.25C12.2233 18.25 11.4533 18.0167 10.7766 17.6667V17.7017C10.7766 20.1284 12.5033 22.1584 14.79 22.6134C14.0559 22.8151 13.285 22.8431 12.5383 22.695C12.8552 23.6896 13.4758 24.5598 14.3128 25.1834C15.1499 25.807 16.1613 26.1527 17.205 26.1717C15.4359 27.5723 13.243 28.3293 10.9866 28.3184C10.59 28.3184 10.1933 28.295 9.79663 28.2484C12.0133 29.6717 14.65 30.5 17.4733 30.5C26.6666 30.5 31.7183 22.87 31.7183 16.255C31.7183 16.0334 31.7183 15.8234 31.7066 15.6017C32.6866 14.9017 33.5266 14.015 34.2033 13Z" fill="#B2916C"/>
<path d="M72.3333 9C73.0406 9 73.7189 9.28095 74.219 9.78105C74.719 10.2811 75 10.9594 75 11.6667V30.3333C75 31.0406 74.719 31.7189 74.219 32.219C73.7189 32.719 73.0406 33 72.3333 33H53.6667C52.9594 33 52.2811 32.719 51.781 32.219C51.281 31.7189 51 31.0406 51 30.3333V11.6667C51 10.9594 51.281 10.2811 51.781 9.78105C52.2811 9.28095 52.9594 9 53.6667 9H72.3333ZM71.6667 29.6667V22.6C71.6667 21.4472 71.2087 20.3416 70.3936 19.5264C69.5784 18.7113 68.4728 18.2533 67.32 18.2533C66.1867 18.2533 64.8667 18.9467 64.2267 19.9867V18.5067H60.5067V29.6667H64.2267V23.0933C64.2267 22.0667 65.0533 21.2267 66.08 21.2267C66.5751 21.2267 67.0499 21.4233 67.3999 21.7734C67.75 22.1235 67.9467 22.5983 67.9467 23.0933V29.6667H71.6667ZM56.1733 16.4133C56.7674 16.4133 57.3372 16.1773 57.7573 15.7573C58.1773 15.3372 58.4133 14.7674 58.4133 14.1733C58.4133 12.9333 57.4133 11.92 56.1733 11.92C55.5757 11.92 55.0026 12.1574 54.58 12.58C54.1574 13.0026 53.92 13.5757 53.92 14.1733C53.92 15.4133 54.9333 16.4133 56.1733 16.4133ZM58.0267 29.6667V18.5067H54.3333V29.6667H58.0267Z" fill="#B2916C"/>
<path d="M104.5 17.5034C103.907 17.5034 103.328 17.6791 102.835 18.0084C102.342 18.3377 101.958 18.8057 101.731 19.3532C101.505 19.9008 101.445 20.5033 101.561 21.0846C101.676 21.6659 101.962 22.1999 102.381 22.619C102.8 23.0381 103.334 23.3235 103.915 23.4391C104.497 23.5547 105.099 23.4954 105.647 23.2686C106.194 23.0418 106.662 22.6577 106.992 22.1649C107.321 21.6721 107.497 21.0927 107.497 20.5C107.497 20.1065 107.419 19.7168 107.269 19.3532C107.118 18.9897 106.897 18.6593 106.619 18.3811C106.341 18.1028 106.01 17.8821 105.647 17.7315C105.283 17.5809 104.893 17.5034 104.5 17.5034ZM116.499 14.5429C116.493 13.6097 116.321 12.685 115.991 11.8121C115.749 11.1732 115.373 10.593 114.89 10.1098C114.407 9.62656 113.827 9.2513 113.188 9.00877C112.315 8.67871 111.39 8.50686 110.457 8.50127C108.898 8.41669 108.439 8.41669 104.5 8.41669C100.561 8.41669 100.102 8.41669 98.5429 8.50127C97.6097 8.50686 96.6849 8.67871 95.812 9.00877C95.1731 9.2513 94.5929 9.62656 94.1097 10.1098C93.6265 10.593 93.2512 11.1732 93.0087 11.8121C92.6787 12.685 92.5068 13.6097 92.5012 14.5429C92.4166 16.1017 92.4166 16.5609 92.4166 20.5C92.4166 24.4392 92.4166 24.8984 92.5012 26.4571C92.5151 27.3934 92.6867 28.3207 93.0087 29.2C93.2488 29.8367 93.6239 30.4138 94.1083 30.8917C94.5897 31.3775 95.1711 31.7527 95.812 31.9913C96.6849 32.3213 97.6097 32.4932 98.5429 32.4988C100.102 32.5834 100.561 32.5834 104.5 32.5834C108.439 32.5834 108.898 32.5834 110.457 32.4988C111.39 32.4932 112.315 32.3213 113.188 31.9913C113.829 31.7527 114.41 31.3775 114.892 30.8917C115.376 30.4138 115.751 29.8367 115.991 29.2C116.32 28.3226 116.492 27.3941 116.499 26.4571C116.583 24.8984 116.583 24.4392 116.583 20.5C116.583 16.5609 116.583 16.1017 116.499 14.5429ZM113.43 24.2096C113.391 24.9554 113.232 25.6899 112.958 26.3846C112.724 26.9642 112.375 27.4908 111.933 27.9329C111.491 28.375 110.964 28.7238 110.385 28.9584C109.683 29.2171 108.945 29.3599 108.197 29.3813H100.802C100.055 29.3599 99.3166 29.2171 98.6154 28.9584C98.016 28.7361 97.4748 28.3808 97.0325 27.9192C96.5943 27.4859 96.2562 26.9622 96.0416 26.3846C95.7827 25.6838 95.6438 24.9445 95.6308 24.1975V16.8025C95.6438 16.0556 95.7827 15.3162 96.0416 14.6154C96.2639 14.016 96.6192 13.4748 97.0808 13.0325C97.5164 12.5974 98.0395 12.2596 98.6154 12.0417C99.3166 11.783 100.055 11.6401 100.802 11.6188H108.197C108.945 11.6401 109.683 11.783 110.385 12.0417C110.984 12.264 111.525 12.6193 111.967 13.0809C112.406 13.5141 112.744 14.0378 112.958 14.6154C113.217 15.3167 113.36 16.0554 113.381 16.8025V20.5C113.381 22.9892 113.466 23.2429 113.43 24.1975V24.2096ZM111.496 15.2196C111.352 14.8293 111.126 14.4748 110.831 14.1807C110.537 13.8866 110.183 13.6597 109.792 13.5159C109.257 13.3301 108.692 13.2401 108.125 13.25H100.875C100.305 13.2556 99.7404 13.362 99.2075 13.5642C98.8231 13.7015 98.4724 13.9191 98.1787 14.2024C97.8849 14.4858 97.6548 14.8284 97.5037 15.2075C97.3289 15.7458 97.2432 16.3091 97.25 16.875V24.125C97.2626 24.6943 97.3687 25.2577 97.5641 25.7925C97.708 26.1828 97.9348 26.5373 98.229 26.8314C98.5231 27.1256 98.8776 27.3524 99.2679 27.4963C99.7836 27.6853 100.326 27.7913 100.875 27.8104H108.125C108.695 27.8049 109.259 27.6985 109.792 27.4963C110.183 27.3524 110.537 27.1256 110.831 26.8314C111.126 26.5373 111.352 26.1828 111.496 25.7925C111.698 25.2596 111.805 24.695 111.81 24.125V16.875C111.81 16.3045 111.704 15.739 111.496 15.2075V15.2196ZM104.5 25.1159C103.894 25.1159 103.295 24.9964 102.735 24.7643C102.176 24.5321 101.668 24.192 101.24 23.7632C100.813 23.3344 100.474 22.8255 100.243 22.2655C100.013 21.7056 99.8946 21.1056 99.8962 20.5C99.8962 19.5866 100.167 18.6937 100.675 17.9343C101.183 17.175 101.904 16.5834 102.748 16.2344C103.593 15.8854 104.521 15.7947 105.417 15.9738C106.313 16.1529 107.135 16.5937 107.78 17.2404C108.425 17.8872 108.864 18.7108 109.041 19.6069C109.217 20.5031 109.124 21.4316 108.773 22.2748C108.422 23.118 107.828 23.8381 107.068 24.3438C106.307 24.8496 105.413 25.1182 104.5 25.1159ZM109.333 16.7904C109.066 16.7622 108.819 16.636 108.639 16.4364C108.46 16.2367 108.36 15.9776 108.36 15.709C108.36 15.4404 108.46 15.1813 108.639 14.9816C108.819 14.7819 109.066 14.6558 109.333 14.6275C109.6 14.6558 109.848 14.7819 110.027 14.9816C110.207 15.1813 110.306 15.4404 110.306 15.709C110.306 15.9776 110.207 16.2367 110.027 16.4364C109.848 16.636 109.6 16.7622 109.333 16.7904Z" fill="#B2916C"/>
<path d="M160.583 20.5C160.583 13.83 155.17 8.41669 148.5 8.41669C141.83 8.41669 136.417 13.83 136.417 20.5C136.417 26.3484 140.573 31.2179 146.083 32.3417V24.125H143.667V20.5H146.083V17.4792C146.083 15.1471 147.98 13.25 150.312 13.25H153.333V16.875H150.917C150.252 16.875 149.708 17.4188 149.708 18.0834V20.5H153.333V24.125H149.708V32.5229C155.81 31.9188 160.583 26.7713 160.583 20.5Z" fill="#B2916C"/>
</svg>
