<svg width="49" height="40" viewBox="0 0 49 40" fill="none" xmlns="http://www.w3.org/2000/svg">
<mask id="path-1-outside-1_648_3" maskUnits="userSpaceOnUse" x="1" y="13" width="25" height="27" fill="black">
<rect fill="white" x="1" y="13" width="25" height="27"/>
<path d="M24.15 39H18.165L8.155 23.845V39H2.17V14.43H8.155L18.165 29.655V14.43H24.15V39Z"/>
</mask>
<path d="M24.15 39H18.165L8.155 23.845V39H2.17V14.43H8.155L18.165 29.655V14.43H24.15V39Z" fill="white"/>
<path d="M24.15 39V40H25.15V39H24.15ZM18.165 39L17.3306 39.5511L17.6271 40H18.165V39ZM8.155 23.845L8.98941 23.2939L7.155 20.5166V23.845H8.155ZM8.155 39V40H9.155V39H8.155ZM2.17 39H1.17V40H2.17V39ZM2.17 14.43V13.43H1.17V14.43H2.17ZM8.155 14.43L8.99058 13.8806L8.6943 13.43H8.155V14.43ZM18.165 29.655L17.3294 30.2044L19.165 32.9962V29.655H18.165ZM18.165 14.43V13.43H17.165V14.43H18.165ZM24.15 14.43H25.15V13.43H24.15V14.43ZM24.15 38H18.165V40H24.15V38ZM18.9994 38.4489L8.98941 23.2939L7.32059 24.3961L17.3306 39.5511L18.9994 38.4489ZM7.155 23.845V39H9.155V23.845H7.155ZM8.155 38H2.17V40H8.155V38ZM3.17 39V14.43H1.17V39H3.17ZM2.17 15.43H8.155V13.43H2.17V15.43ZM7.31942 14.9794L17.3294 30.2044L19.0006 29.1056L8.99058 13.8806L7.31942 14.9794ZM19.165 29.655V14.43H17.165V29.655H19.165ZM18.165 15.43H24.15V13.43H18.165V15.43ZM23.15 14.43V39H25.15V14.43H23.15Z" fill="black" mask="url(#path-1-outside-1_648_3)"/>
<mask id="path-3-outside-2_648_3" maskUnits="userSpaceOnUse" x="20" y="13" width="29" height="27" fill="black">
<rect fill="white" x="20" y="13" width="29" height="27"/>
<path d="M22 15.85V21.835L37.155 31.845L22 31.845V37.83L46.57 37.83V31.845L31.345 21.835L46.57 21.835L46.57 15.85L22 15.85Z"/>
</mask>
<path d="M22 15.85V21.835L37.155 31.845L22 31.845V37.83L46.57 37.83V31.845L31.345 21.835L46.57 21.835L46.57 15.85L22 15.85Z" fill="white"/>
<path d="M22 15.85H20V13.85H22V15.85ZM22 21.835L20.8977 23.5038L20 22.9109V21.835H22ZM37.155 31.845L38.2573 30.1762L43.8118 33.845H37.155V31.845ZM22 31.845H20L20 29.845H22L22 31.845ZM22 37.83V39.83H20V37.83H22ZM46.57 37.83H48.57V39.83H46.57V37.83ZM46.57 31.845L47.6687 30.1738L48.57 30.7664V31.845H46.57ZM31.345 21.835L30.2463 23.5062L24.6625 19.835H31.345V21.835ZM46.57 21.835H48.57V23.835H46.57V21.835ZM46.57 15.85V13.85H48.57V15.85H46.57ZM24 15.85V21.835H20V15.85H24ZM23.1023 20.1662L38.2573 30.1762L36.0527 33.5138L20.8977 23.5038L23.1023 20.1662ZM37.155 33.845L22 33.845L22 29.845L37.155 29.845V33.845ZM24 31.845V37.83H20V31.845L24 31.845ZM22 35.83L46.57 35.83V39.83L22 39.83V35.83ZM44.57 37.83V31.845H48.57V37.83H44.57ZM45.4713 33.5162L30.2463 23.5062L32.4437 20.1638L47.6687 30.1738L45.4713 33.5162ZM31.345 19.835L46.57 19.835L46.57 23.835L31.345 23.835V19.835ZM44.57 21.835L44.57 15.85H48.57L48.57 21.835H44.57ZM46.57 17.85L22 17.85V13.85L46.57 13.85V17.85Z" fill="black" mask="url(#path-3-outside-2_648_3)"/>
</svg>
