<svg width="49" height="26" viewBox="0 0 49 26" fill="none" xmlns="http://www.w3.org/2000/svg">
<path d="M24.15 25H18.165L8.155 9.845V25H2.17V0.429999H8.155L18.165 15.655V0.429999H24.15V25Z" fill="black"/>
<mask id="path-2-outside-1_658_16" maskUnits="userSpaceOnUse" x="22" y="0" width="27" height="25" fill="black">
<rect fill="white" x="22" width="27" height="25"/>
<path d="M23 1.85V7.835L38.155 17.845L23 17.845V23.83L47.57 23.83V17.845L32.345 7.835L47.57 7.835L47.57 1.85L23 1.85Z"/>
</mask>
<path d="M23 1.85V7.835L38.155 17.845L23 17.845V23.83L47.57 23.83V17.845L32.345 7.835L47.57 7.835L47.57 1.85L23 1.85Z" fill="black"/>
<path d="M23 1.85H22V0.849998H23V1.85ZM23 7.835L22.4489 8.66941L22 8.37293V7.835H23ZM38.155 17.845L38.7061 17.0106L41.4834 18.845H38.155V17.845ZM23 17.845H22V16.845H23V17.845ZM23 23.83V24.83H22V23.83H23ZM47.57 23.83H48.57V24.83H47.57V23.83ZM47.57 17.845L48.1194 17.0094L48.57 17.3057V17.845H47.57ZM32.345 7.835L31.7956 8.67058L29.0038 6.835H32.345V7.835ZM47.57 7.835H48.57V8.835H47.57V7.835ZM47.57 1.85V0.849998H48.57V1.85H47.57ZM24 1.85V7.835H22V1.85H24ZM23.5511 7.00058L38.7061 17.0106L37.6039 18.6794L22.4489 8.66941L23.5511 7.00058ZM38.155 18.845L23 18.845V16.845L38.155 16.845V18.845ZM24 17.845V23.83H22V17.845L24 17.845ZM23 22.83L47.57 22.83V24.83L23 24.83V22.83ZM46.57 23.83V17.845H48.57V23.83H46.57ZM47.0206 18.6806L31.7956 8.67058L32.8944 6.99942L48.1194 17.0094L47.0206 18.6806ZM32.345 6.835L47.57 6.835V8.835L32.345 8.835V6.835ZM46.57 7.835L46.57 1.85H48.57L48.57 7.835H46.57ZM47.57 2.85L23 2.85V0.849998L47.57 0.849998V2.85Z" fill="#F5EDDD" mask="url(#path-2-outside-1_658_16)"/>
</svg>
