<svg width="49" height="39" viewBox="0 0 49 39" fill="none" xmlns="http://www.w3.org/2000/svg">
<path d="M24.15 39H18.165L8.155 23.845V39H2.17V14.43H8.155L18.165 29.655V14.43H24.15V39Z" fill="black"/>
<mask id="path-2-outside-1_389_4" maskUnits="userSpaceOnUse" x="22" y="13" width="27" height="25" fill="black">
<rect fill="white" x="22" y="13" width="27" height="25"/>
<path d="M23 14.85V20.835L38.155 30.845L23 30.845L23 36.83H47.57V30.845L32.345 20.835H47.57V14.85L23 14.85Z"/>
</mask>
<path d="M23 14.85V20.835L38.155 30.845L23 30.845L23 36.83H47.57V30.845L32.345 20.835H47.57V14.85L23 14.85Z" fill="black"/>
<path d="M23 14.85H22V13.85H23V14.85ZM23 20.835L22.4489 21.6694L22 21.3729V20.835H23ZM38.155 30.845L38.7061 30.0106L41.4834 31.845H38.155V30.845ZM23 30.845H22V29.845H23V30.845ZM23 36.83V37.83H22V36.83H23ZM47.57 36.83H48.57V37.83H47.57V36.83ZM47.57 30.845L48.1194 30.0094L48.57 30.3057V30.845H47.57ZM32.345 20.835L31.7956 21.6706L29.0038 19.835L32.345 19.835V20.835ZM47.57 20.835H48.57V21.835H47.57V20.835ZM47.57 14.85V13.85H48.57V14.85H47.57ZM24 14.85V20.835H22V14.85H24ZM23.5511 20.0006L38.7061 30.0106L37.6039 31.6794L22.4489 21.6694L23.5511 20.0006ZM38.155 31.845L23 31.845V29.845L38.155 29.845V31.845ZM24 30.845L24 36.83H22L22 30.845L24 30.845ZM23 35.83H47.57V37.83H23V35.83ZM46.57 36.83V30.845H48.57V36.83H46.57ZM47.0206 31.6806L31.7956 21.6706L32.8944 19.9994L48.1194 30.0094L47.0206 31.6806ZM32.345 19.835H47.57V21.835H32.345V19.835ZM46.57 20.835V14.85H48.57V20.835H46.57ZM47.57 15.85L23 15.85V13.85L47.57 13.85V15.85Z" fill="#F5EDDD" mask="url(#path-2-outside-1_389_4)"/>
</svg>
