<svg width="52" height="40" viewBox="0 0 52 40" fill="none" xmlns="http://www.w3.org/2000/svg">
<mask id="path-1-outside-1_208_233" maskUnits="userSpaceOnUse" x="1" y="13" width="25" height="27" fill="black">
<rect fill="white" x="1" y="13" width="25" height="27"/>
<path d="M24.15 39H18.165L8.155 23.845V39H2.17V14.43H8.155L18.165 29.655V14.43H24.15V39Z"/>
</mask>
<path d="M24.15 39H18.165L8.155 23.845V39H2.17V14.43H8.155L18.165 29.655V14.43H24.15V39Z" fill="black"/>
<path d="M24.15 39V40H25.15V39H24.15ZM18.165 39L17.3306 39.5511L17.6271 40H18.165V39ZM8.155 23.845L8.98942 23.2939L7.155 20.5166V23.845H8.155ZM8.155 39V40H9.155V39H8.155ZM2.17 39H1.17V40H2.17V39ZM2.17 14.43V13.43H1.17V14.43H2.17ZM8.155 14.43L8.99058 13.8806L8.6943 13.43H8.155V14.43ZM18.165 29.655L17.3294 30.2044L19.165 32.9962V29.655H18.165ZM18.165 14.43V13.43H17.165V14.43H18.165ZM24.15 14.43H25.15V13.43H24.15V14.43ZM24.15 38H18.165V40H24.15V38ZM18.9994 38.4489L8.98942 23.2939L7.32059 24.3961L17.3306 39.5511L18.9994 38.4489ZM7.155 23.845V39H9.155V23.845H7.155ZM8.155 38H2.17V40H8.155V38ZM3.17 39V14.43H1.17V39H3.17ZM2.17 15.43H8.155V13.43H2.17V15.43ZM7.31942 14.9794L17.3294 30.2044L19.0006 29.1056L8.99058 13.8806L7.31942 14.9794ZM19.165 29.655V14.43H17.165V29.655H19.165ZM18.165 15.43H24.15V13.43H18.165V15.43ZM23.15 14.43V39H25.15V14.43H23.15Z" fill="white" mask="url(#path-1-outside-1_208_233)"/>
<mask id="path-3-outside-2_208_233" maskUnits="userSpaceOnUse" x="22.7349" y="13" width="29" height="27" fill="black">
<rect fill="white" x="22.7349" y="13" width="29" height="27"/>
<path d="M24.7349 15.85V21.835L39.8899 31.845L24.7349 31.845V37.83L49.3049 37.83V31.845L34.0799 21.835L49.3049 21.835V15.85L24.7349 15.85Z"/>
</mask>
<path d="M24.7349 15.85V21.835L39.8899 31.845L24.7349 31.845V37.83L49.3049 37.83V31.845L34.0799 21.835L49.3049 21.835V15.85L24.7349 15.85Z" fill="black"/>
<path d="M24.7349 15.85H22.7349V13.85H24.7349V15.85ZM24.7349 21.835L23.6326 23.5038L22.7349 22.9109V21.835H24.7349ZM39.8899 31.845L40.9921 30.1762L46.5467 33.845H39.8899V31.845ZM24.7349 31.845L22.7349 31.845L22.7349 29.845L24.7349 29.845L24.7349 31.845ZM24.7349 37.83V39.83H22.7349V37.83H24.7349ZM49.3049 37.83H51.3049V39.83H49.3049V37.83ZM49.3049 31.845L50.4036 30.1738L51.3049 30.7664V31.845H49.3049ZM34.0799 21.835L32.9811 23.5062L27.3974 19.835H34.0799V21.835ZM49.3049 21.835H51.3049L51.3049 23.835H49.3049L49.3049 21.835ZM49.3049 15.85V13.85H51.3049V15.85H49.3049ZM26.7349 15.85V21.835H22.7349V15.85H26.7349ZM25.8371 20.1662L40.9921 30.1762L38.7876 33.5138L23.6326 23.5038L25.8371 20.1662ZM39.8899 33.845L24.7349 33.845L24.7349 29.845L39.8899 29.845V33.845ZM26.7349 31.845V37.83H22.7349V31.845L26.7349 31.845ZM24.7349 35.83L49.3049 35.83V39.83L24.7349 39.83V35.83ZM47.3049 37.83V31.845H51.3049V37.83H47.3049ZM48.2061 33.5162L32.9811 23.5062L35.1786 20.1638L50.4036 30.1738L48.2061 33.5162ZM34.0799 19.835L49.3049 19.835L49.3049 23.835L34.0799 23.835V19.835ZM47.3049 21.835L47.3049 15.85H51.3049V21.835H47.3049ZM49.3049 17.85L24.7349 17.85V13.85L49.3049 13.85V17.85Z" fill="white" mask="url(#path-3-outside-2_208_233)"/>
</svg>
