<svg width="120" height="24" viewBox="0 0 120 24" fill="none" xmlns="http://www.w3.org/2000/svg">
<path d="M10.3069 7.21991C10.9489 5.61991 11.2699 4.81891 11.7919 4.70791C11.929 4.67874 12.0708 4.67874 12.2079 4.70791C12.7289 4.81791 13.0509 5.61891 13.6929 7.21991C14.0579 8.12991 14.2399 8.58491 14.5819 8.89491C14.6786 8.98157 14.7819 9.05824 14.8919 9.12491C15.2869 9.36391 15.7799 9.40791 16.7659 9.49591C18.4349 9.64591 19.2689 9.71991 19.5239 10.1959C19.5767 10.2946 19.6125 10.4014 19.6299 10.5119C19.7149 11.0449 19.1009 11.6019 17.8739 12.7189L17.5339 13.0289C16.9599 13.5509 16.6739 13.8119 16.5079 14.1369C16.4082 14.3323 16.3413 14.5428 16.3099 14.7599C16.2579 15.1209 16.3419 15.4999 16.5099 16.2569L16.5699 16.5269C16.8709 17.8849 17.0219 18.5639 16.8339 18.8969C16.7508 19.0444 16.6316 19.1684 16.4875 19.2573C16.3434 19.3461 16.179 19.3969 16.0099 19.4049C15.6279 19.4239 15.0889 18.9849 14.0099 18.1059C13.2999 17.5269 12.9449 17.2379 12.5509 17.1249C12.1908 17.0217 11.809 17.0217 11.4489 17.1249C11.0549 17.2379 10.6989 17.5269 9.98892 18.1059C8.91092 18.9839 8.37192 19.4239 7.98892 19.4059C7.81987 19.3976 7.65569 19.3466 7.51175 19.2576C7.36781 19.1686 7.24881 19.0445 7.16592 18.8969C6.97792 18.5639 7.12892 17.8849 7.42992 16.5269L7.48992 16.2569C7.65792 15.4999 7.74192 15.1209 7.68992 14.7599C7.65853 14.5428 7.59164 14.3323 7.49192 14.1369C7.32592 13.8119 7.03992 13.5509 6.46592 13.0289L6.12592 12.7189C4.89892 11.6029 4.28592 11.0449 4.36992 10.5119C4.38732 10.4014 4.42315 10.2946 4.47592 10.1959C4.73092 9.71991 5.56592 9.64591 7.23392 9.49591C8.21992 9.40791 8.71292 9.36391 9.10692 9.12591C9.21747 9.0591 9.32128 8.98174 9.41692 8.89491C9.75992 8.58491 9.94192 8.12991 10.3069 7.21991Z" fill="#FFCC00" stroke="#FFCC00" stroke-width="2"/>
<path d="M34.3069 7.21991C34.9489 5.61991 35.2699 4.81891 35.7919 4.70791C35.929 4.67874 36.0708 4.67874 36.2079 4.70791C36.7289 4.81791 37.0509 5.61891 37.6929 7.21991C38.0579 8.12991 38.2399 8.58491 38.5819 8.89491C38.6786 8.98157 38.7819 9.05824 38.8919 9.12491C39.2869 9.36391 39.7799 9.40791 40.7659 9.49591C42.4349 9.64591 43.2689 9.71991 43.5239 10.1959C43.5767 10.2946 43.6125 10.4014 43.6299 10.5119C43.7149 11.0449 43.1009 11.6019 41.8739 12.7189L41.5339 13.0289C40.9599 13.5509 40.6739 13.8119 40.5079 14.1369C40.4082 14.3323 40.3413 14.5428 40.3099 14.7599C40.2579 15.1209 40.3419 15.4999 40.5099 16.2569L40.5699 16.5269C40.8709 17.8849 41.0219 18.5639 40.8339 18.8969C40.7508 19.0444 40.6316 19.1684 40.4875 19.2573C40.3434 19.3461 40.179 19.3969 40.0099 19.4049C39.6279 19.4239 39.0889 18.9849 38.0099 18.1059C37.2999 17.5269 36.9449 17.2379 36.5509 17.1249C36.1908 17.0217 35.809 17.0217 35.4489 17.1249C35.0549 17.2379 34.6989 17.5269 33.9889 18.1059C32.9109 18.9839 32.3719 19.4239 31.9889 19.4059C31.8199 19.3976 31.6557 19.3466 31.5117 19.2576C31.3678 19.1686 31.2488 19.0445 31.1659 18.8969C30.9779 18.5639 31.1289 17.8849 31.4299 16.5269L31.4899 16.2569C31.6579 15.4999 31.7419 15.1209 31.6899 14.7599C31.6585 14.5428 31.5916 14.3323 31.4919 14.1369C31.3259 13.8119 31.0399 13.5509 30.4659 13.0289L30.1259 12.7189C28.8989 11.6029 28.2859 11.0449 28.3699 10.5119C28.3873 10.4014 28.4232 10.2946 28.4759 10.1959C28.7309 9.71991 29.5659 9.64591 31.2339 9.49591C32.2199 9.40791 32.7129 9.36391 33.1069 9.12591C33.2175 9.0591 33.3213 8.98174 33.4169 8.89491C33.7599 8.58491 33.9419 8.12991 34.3069 7.21991Z" fill="#FFCC00" stroke="#FFCC00" stroke-width="2"/>
<path d="M58.3069 7.21991C58.9489 5.61991 59.2699 4.81891 59.7919 4.70791C59.929 4.67874 60.0708 4.67874 60.2079 4.70791C60.7289 4.81791 61.0509 5.61891 61.6929 7.21991C62.0579 8.12991 62.2399 8.58491 62.5819 8.89491C62.6786 8.98157 62.7819 9.05824 62.8919 9.12491C63.2869 9.36391 63.7799 9.40791 64.7659 9.49591C66.4349 9.64591 67.2689 9.71991 67.5239 10.1959C67.5767 10.2946 67.6125 10.4014 67.6299 10.5119C67.7149 11.0449 67.1009 11.6019 65.8739 12.7189L65.5339 13.0289C64.9599 13.5509 64.6739 13.8119 64.5079 14.1369C64.4082 14.3323 64.3413 14.5428 64.3099 14.7599C64.2579 15.1209 64.3419 15.4999 64.5099 16.2569L64.5699 16.5269C64.8709 17.8849 65.0219 18.5639 64.8339 18.8969C64.7508 19.0444 64.6316 19.1684 64.4875 19.2573C64.3434 19.3461 64.179 19.3969 64.0099 19.4049C63.6279 19.4239 63.0889 18.9849 62.0099 18.1059C61.2999 17.5269 60.9449 17.2379 60.5509 17.1249C60.1908 17.0217 59.809 17.0217 59.4489 17.1249C59.0549 17.2379 58.6989 17.5269 57.9889 18.1059C56.9109 18.9839 56.3719 19.4239 55.9889 19.4059C55.8199 19.3976 55.6557 19.3466 55.5117 19.2576C55.3678 19.1686 55.2488 19.0445 55.1659 18.8969C54.9779 18.5639 55.1289 17.8849 55.4299 16.5269L55.4899 16.2569C55.6579 15.4999 55.7419 15.1209 55.6899 14.7599C55.6585 14.5428 55.5916 14.3323 55.4919 14.1369C55.3259 13.8119 55.0399 13.5509 54.4659 13.0289L54.1259 12.7189C52.8989 11.6029 52.2859 11.0449 52.3699 10.5119C52.3873 10.4014 52.4232 10.2946 52.4759 10.1959C52.7309 9.71991 53.5659 9.64591 55.2339 9.49591C56.2199 9.40791 56.7129 9.36391 57.1069 9.12591C57.2175 9.0591 57.3213 8.98174 57.4169 8.89491C57.7599 8.58491 57.9419 8.12991 58.3069 7.21991Z" fill="#FFCC00" stroke="#FFCC00" stroke-width="2"/>
<path d="M82.3069 7.21991C82.9489 5.61991 83.2699 4.81891 83.7919 4.70791C83.929 4.67874 84.0708 4.67874 84.2079 4.70791C84.7289 4.81791 85.0509 5.61891 85.6929 7.21991C86.0579 8.12991 86.2399 8.58491 86.5819 8.89491C86.6786 8.98157 86.7819 9.05824 86.8919 9.12491C87.2869 9.36391 87.7799 9.40791 88.7659 9.49591C90.4349 9.64591 91.2689 9.71991 91.5239 10.1959C91.5767 10.2946 91.6125 10.4014 91.6299 10.5119C91.7149 11.0449 91.1009 11.6019 89.8739 12.7189L89.5339 13.0289C88.9599 13.5509 88.6739 13.8119 88.5079 14.1369C88.4082 14.3323 88.3413 14.5428 88.3099 14.7599C88.2579 15.1209 88.3419 15.4999 88.5099 16.2569L88.5699 16.5269C88.8709 17.8849 89.0219 18.5639 88.8339 18.8969C88.7508 19.0444 88.6316 19.1684 88.4875 19.2573C88.3434 19.3461 88.179 19.3969 88.0099 19.4049C87.6279 19.4239 87.0889 18.9849 86.0099 18.1059C85.2999 17.5269 84.9449 17.2379 84.5509 17.1249C84.1908 17.0217 83.809 17.0217 83.4489 17.1249C83.0549 17.2379 82.6989 17.5269 81.9889 18.1059C80.9109 18.9839 80.3719 19.4239 79.9889 19.4059C79.8199 19.3976 79.6557 19.3466 79.5117 19.2576C79.3678 19.1686 79.2488 19.0445 79.1659 18.8969C78.9779 18.5639 79.1289 17.8849 79.4299 16.5269L79.4899 16.2569C79.6579 15.4999 79.7419 15.1209 79.6899 14.7599C79.6585 14.5428 79.5916 14.3323 79.4919 14.1369C79.3259 13.8119 79.0399 13.5509 78.4659 13.0289L78.1259 12.7189C76.8989 11.6029 76.2859 11.0449 76.3699 10.5119C76.3873 10.4014 76.4232 10.2946 76.4759 10.1959C76.7309 9.71991 77.5659 9.64591 79.2339 9.49591C80.2199 9.40791 80.7129 9.36391 81.1069 9.12591C81.2175 9.0591 81.3213 8.98174 81.4169 8.89491C81.7599 8.58491 81.9419 8.12991 82.3069 7.21991Z" fill="#FFCC00" stroke="#FFCC00" stroke-width="2"/>
<path d="M106.307 7.21991C106.949 5.61991 107.27 4.81891 107.792 4.70791C107.929 4.67874 108.071 4.67874 108.208 4.70791C108.729 4.81791 109.051 5.61891 109.693 7.21991C110.058 8.12991 110.24 8.58491 110.582 8.89491C110.679 8.98157 110.782 9.05824 110.892 9.12491C111.287 9.36391 111.78 9.40791 112.766 9.49591C114.435 9.64591 115.269 9.71991 115.524 10.1959C115.577 10.2946 115.613 10.4014 115.63 10.5119C115.715 11.0449 115.101 11.6019 113.874 12.7189L113.534 13.0289C112.96 13.5509 112.674 13.8119 112.508 14.1369C112.408 14.3323 112.341 14.5428 112.31 14.7599C112.258 15.1209 112.342 15.4999 112.51 16.2569L112.57 16.5269C112.871 17.8849 113.022 18.5639 112.834 18.8969C112.751 19.0444 112.632 19.1684 112.487 19.2573C112.343 19.3461 112.179 19.3969 112.01 19.4049C111.628 19.4239 111.089 18.9849 110.01 18.1059C109.3 17.5269 108.945 17.2379 108.551 17.1249C108.191 17.0217 107.809 17.0217 107.449 17.1249C107.055 17.2379 106.699 17.5269 105.989 18.1059C104.911 18.9839 104.372 19.4239 103.989 19.4059C103.82 19.3976 103.656 19.3466 103.512 19.2576C103.368 19.1686 103.249 19.0445 103.166 18.8969C102.978 18.5639 103.129 17.8849 103.43 16.5269L103.49 16.2569C103.658 15.4999 103.742 15.1209 103.69 14.7599C103.659 14.5428 103.592 14.3323 103.492 14.1369C103.326 13.8119 103.04 13.5509 102.466 13.0289L102.126 12.7189C100.899 11.6029 100.286 11.0449 100.37 10.5119C100.387 10.4014 100.423 10.2946 100.476 10.1959C100.731 9.71991 101.566 9.64591 103.234 9.49591C104.22 9.40791 104.713 9.36391 105.107 9.12591C105.217 9.0591 105.321 8.98174 105.417 8.89491C105.76 8.58491 105.942 8.12991 106.307 7.21991Z" fill="#FFCC00" stroke="#FFCC00" stroke-width="2"/>
</svg>
