<svg width="17" height="17" viewBox="0 0 17 17" fill="none" xmlns="http://www.w3.org/2000/svg">
<path d="M6.73061 4.20005C7.33671 2.68951 7.63976 1.9333 8.13258 1.82851C8.26204 1.80098 8.39585 1.80098 8.52531 1.82851C9.01718 1.93236 9.32118 2.68857 9.92728 4.20005C10.2719 5.05916 10.4437 5.48872 10.7666 5.78138C10.8578 5.8632 10.9554 5.93558 11.0592 5.99852C11.4321 6.22416 11.8976 6.2657 12.8284 6.34878C14.4041 6.49039 15.1915 6.56025 15.4322 7.00964C15.482 7.10278 15.5159 7.20362 15.5323 7.30797C15.6125 7.81116 15.0329 8.33702 13.8745 9.39156L13.5535 9.68422C13.0116 10.177 12.7416 10.4234 12.5849 10.7303C12.4907 10.9147 12.4276 11.1135 12.3979 11.3184C12.3488 11.6592 12.4282 12.0171 12.5868 12.7317L12.6434 12.9866C12.9276 14.2687 13.0701 14.9097 12.8926 15.2241C12.8142 15.3634 12.7016 15.4804 12.5656 15.5643C12.4295 15.6482 12.2744 15.6961 12.1147 15.7037C11.7541 15.7216 11.2452 15.3072 10.2266 14.4773C9.55625 13.9307 9.2211 13.6579 8.84913 13.5512C8.50918 13.4538 8.14871 13.4538 7.80876 13.5512C7.43679 13.6579 7.10069 13.9307 6.4304 14.4773C5.41267 15.3062 4.90381 15.7216 4.54223 15.7046C4.38264 15.6968 4.22764 15.6487 4.09174 15.5646C3.95585 15.4806 3.84351 15.3634 3.76525 15.2241C3.58776 14.9097 3.73032 14.2687 4.01449 12.9866L4.07113 12.7317C4.22974 12.0171 4.30904 11.6592 4.25995 11.3184C4.23032 11.1135 4.16717 10.9147 4.07302 10.7303C3.9163 10.4234 3.64629 10.177 3.10439 9.68422L2.7834 9.39156C1.62501 8.33796 1.04629 7.81116 1.12559 7.30797C1.14203 7.20362 1.17585 7.10278 1.22567 7.00964C1.46641 6.56025 2.25472 6.49039 3.82945 6.34878C4.76031 6.2657 5.22575 6.22416 5.59771 5.99947C5.70208 5.93639 5.8001 5.86336 5.89038 5.78138C6.2142 5.48872 6.38602 5.05916 6.73061 4.20005Z" fill="#FFCC00" stroke="#FFCC00" stroke-width="2"/>
</svg>
