<svg width="29" height="29" viewBox="0 0 29 29" fill="none" xmlns="http://www.w3.org/2000/svg">
<path d="M14.5 11.5034C13.9073 11.5034 13.3279 11.6791 12.8351 12.0084C12.3423 12.3377 11.9582 12.8057 11.7314 13.3532C11.5046 13.9008 11.4452 14.5033 11.5609 15.0846C11.6765 15.6659 11.9619 16.1999 12.381 16.619C12.8001 17.0381 13.334 17.3235 13.9153 17.4391C14.4966 17.5547 15.0992 17.4954 15.6467 17.2686C16.1943 17.0418 16.6623 16.6577 16.9916 16.1649C17.3209 15.6721 17.4966 15.0927 17.4966 14.5C17.4966 14.1065 17.4191 13.7168 17.2685 13.3532C17.1179 12.9897 16.8972 12.6593 16.6189 12.3811C16.3407 12.1028 16.0103 11.8821 15.6467 11.7315C15.2832 11.5809 14.8935 11.5034 14.5 11.5034ZM26.4987 8.54294C26.4931 7.60974 26.3213 6.685 25.9912 5.8121C25.7487 5.17321 25.3734 4.59301 24.8902 4.10979C24.407 3.62656 23.8268 3.2513 23.1879 3.00877C22.315 2.67871 21.3902 2.50686 20.457 2.50127C18.8983 2.41669 18.4391 2.41669 14.5 2.41669C10.5608 2.41669 10.1016 2.41669 8.54288 2.50127C7.60968 2.50686 6.68494 2.67871 5.81204 3.00877C5.17315 3.2513 4.59295 3.62656 4.10972 4.10979C3.6265 4.59301 3.25124 5.17321 3.00871 5.8121C2.67865 6.685 2.5068 7.60974 2.50121 8.54294C2.41663 10.1017 2.41663 10.5609 2.41663 14.5C2.41663 18.4392 2.41663 18.8984 2.50121 20.4571C2.51514 21.3934 2.68671 22.3207 3.00871 23.2C3.24881 23.8367 3.62393 24.4138 4.10829 24.8917C4.58969 25.3775 5.17106 25.7527 5.81204 25.9913C6.68494 26.3213 7.60968 26.4932 8.54288 26.4988C10.1016 26.5834 10.5608 26.5834 14.5 26.5834C18.4391 26.5834 18.8983 26.5834 20.457 26.4988C21.3902 26.4932 22.315 26.3213 23.1879 25.9913C23.8289 25.7527 24.4102 25.3775 24.8916 24.8917C25.376 24.4138 25.7511 23.8367 25.9912 23.2C26.3202 22.3226 26.492 21.3941 26.4987 20.4571C26.5833 18.8984 26.5833 18.4392 26.5833 14.5C26.5833 10.5609 26.5833 10.1017 26.4987 8.54294ZM23.4295 18.2096C23.3914 18.9554 23.2322 19.6899 22.9583 20.3846C22.7237 20.9642 22.375 21.4908 21.9328 21.9329C21.4907 22.375 20.9642 22.7238 20.3845 22.9584C19.6833 23.2171 18.9446 23.3599 18.1975 23.3813H10.8025C10.0553 23.3599 9.31663 23.2171 8.61538 22.9584C8.01598 22.7361 7.47477 22.3808 7.03246 21.9192C6.59434 21.4859 6.25617 20.9622 6.04163 20.3846C5.78273 19.6838 5.64384 18.9445 5.63079 18.1975V10.8025C5.64384 10.0556 5.78273 9.31619 6.04163 8.61544C6.26392 8.01604 6.61922 7.47484 7.08079 7.03252C7.51643 6.59735 8.03949 6.25963 8.61538 6.04169C9.31663 5.78297 10.0553 5.64013 10.8025 5.61877H18.1975C18.9446 5.64013 19.6833 5.78297 20.3845 6.04169C20.9839 6.26398 21.5251 6.61928 21.9675 7.08085C22.4056 7.5141 22.7437 8.03784 22.9583 8.61544C23.217 9.31669 23.3598 10.0554 23.3812 10.8025V14.5C23.3812 16.9892 23.4658 17.2429 23.4295 18.1975V18.2096ZM21.4962 9.2196C21.3523 8.82929 21.1255 8.47484 20.8314 8.18069C20.5372 7.88655 20.1828 7.65972 19.7925 7.51585C19.2565 7.33008 18.6921 7.2401 18.125 7.25002H10.875C10.3049 7.25559 9.74042 7.36195 9.20746 7.56419C8.82312 7.70152 8.47242 7.91909 8.17866 8.20243C7.88491 8.48577 7.65482 8.82839 7.50371 9.20752C7.32887 9.74582 7.24316 10.3091 7.24996 10.875V18.125C7.2626 18.6943 7.36874 19.2577 7.56413 19.7925C7.70799 20.1828 7.93482 20.5373 8.22897 20.8314C8.52311 21.1256 8.87756 21.3524 9.26788 21.4963C9.7836 21.6853 10.326 21.7913 10.875 21.8104H18.125C18.695 21.8049 19.2595 21.6985 19.7925 21.4963C20.1828 21.3524 20.5372 21.1256 20.8314 20.8314C21.1255 20.5373 21.3523 20.1828 21.4962 19.7925C21.6984 19.2596 21.8048 18.695 21.8104 18.125V10.875C21.8102 10.3045 21.7036 9.73901 21.4962 9.20752V9.2196ZM14.5 19.1159C13.8944 19.1159 13.2947 18.9964 12.7354 18.7643C12.176 18.5321 11.668 18.192 11.2403 17.7632C10.8127 17.3344 10.4738 16.8255 10.2432 16.2655C10.0125 15.7056 9.89462 15.1056 9.89621 14.5C9.89621 13.5866 10.1672 12.6937 10.675 11.9343C11.1827 11.175 11.9043 10.5834 12.7484 10.2344C13.5926 9.8854 14.5213 9.7947 15.417 9.97378C16.3127 10.1529 17.1352 10.5937 17.7802 11.2404C18.4253 11.8872 18.8639 12.7108 19.0407 13.6069C19.2174 14.5031 19.1243 15.4316 18.773 16.2748C18.4218 17.118 17.8283 17.8381 17.0677 18.3438C16.307 18.8496 15.4134 19.1182 14.5 19.1159ZM19.3333 10.7904C19.0662 10.7622 18.819 10.636 18.6393 10.4364C18.4597 10.2367 18.3603 9.97758 18.3603 9.70898C18.3603 9.44037 18.4597 9.18127 18.6393 8.9816C18.819 8.78192 19.0662 8.65579 19.3333 8.62752C19.6004 8.65579 19.8476 8.78192 20.0273 8.9816C20.2069 9.18127 20.3063 9.44037 20.3063 9.70898C20.3063 9.97758 20.2069 10.2367 20.0273 10.4364C19.8476 10.636 19.6004 10.7622 19.3333 10.7904Z" fill="#B2916C"/>
</svg>
