<svg width="12" height="12" viewBox="0 0 12 12" fill="none" xmlns="http://www.w3.org/2000/svg">
<path fill-rule="evenodd" clip-rule="evenodd" d="M8.56348 1.23214C8.46004 1.06686 8.30765 0.937952 8.12752 0.863345C7.94739 0.788738 7.74848 0.772148 7.55848 0.815885L6.20998 1.12564C6.07178 1.1574 5.92818 1.1574 5.78998 1.12564L4.44148 0.815885C4.25148 0.772148 4.05257 0.788738 3.87243 0.863345C3.6923 0.937952 3.53991 1.06686 3.43648 1.23214L2.70148 2.40513C2.62648 2.52513 2.52523 2.62639 2.40523 2.70214L1.23223 3.43714C1.06724 3.54048 0.93852 3.69262 0.863929 3.87244C0.789338 4.05227 0.772579 4.25085 0.815979 4.44063L1.12573 5.79063C1.15738 5.92859 1.15738 6.07193 1.12573 6.20988L0.815979 7.55913C0.772411 7.74903 0.789085 7.94777 0.863684 8.12775C0.938283 8.30773 1.0671 8.46 1.23223 8.56338L2.40523 9.29838C2.52523 9.37338 2.62648 9.47463 2.70223 9.59463L3.43723 10.7676C3.64873 11.1059 4.05223 11.2731 4.44148 11.1839L5.78998 10.8741C5.92818 10.8424 6.07178 10.8424 6.20998 10.8741L7.55923 11.1839C7.74912 11.2275 7.94787 11.2108 8.12785 11.1362C8.30782 11.0616 8.46009 10.9328 8.56348 10.7676L9.29848 9.59463C9.37348 9.47463 9.47473 9.37338 9.59473 9.29838L10.7685 8.56338C10.9336 8.45985 11.0624 8.30741 11.1368 8.12729C11.2113 7.94716 11.2278 7.74831 11.184 7.55838L10.875 6.20988C10.8432 6.07169 10.8432 5.92808 10.875 5.78989L11.1847 4.44063C11.2284 4.25082 11.2118 4.05213 11.1373 3.87216C11.0629 3.69219 10.9342 3.53988 10.7692 3.43638L9.59548 2.70139C9.47565 2.62625 9.37437 2.52497 9.29923 2.40513L8.56348 1.23214ZM8.18623 4.32739C8.23262 4.24208 8.24411 4.14212 8.21829 4.04851C8.19247 3.95491 8.13135 3.87497 8.04779 3.82552C7.96423 3.77606 7.86475 3.76095 7.77027 3.78335C7.67579 3.80575 7.59369 3.86393 7.54123 3.94563L5.57998 7.26513L4.39573 6.13113C4.3606 6.09506 4.31856 6.06643 4.27212 6.04696C4.22569 6.02748 4.1758 6.01756 4.12545 6.01778C4.07509 6.018 4.0253 6.02835 3.97903 6.04823C3.93277 6.06811 3.89098 6.09711 3.85617 6.13349C3.82135 6.16987 3.79421 6.21288 3.77638 6.25998C3.75855 6.30707 3.75039 6.35727 3.75238 6.40759C3.75436 6.4579 3.76647 6.5073 3.78796 6.55284C3.80945 6.59838 3.8399 6.63912 3.87748 6.67264L5.40298 8.13438C5.44381 8.17342 5.49293 8.20274 5.54667 8.22013C5.60042 8.23752 5.6574 8.24255 5.71336 8.23483C5.76932 8.22712 5.82282 8.20686 5.86985 8.17557C5.91688 8.14428 5.95624 8.10277 5.98498 8.05413L8.18623 4.32739Z" fill="#508B6B"/>
</svg>
