<svg width="12" height="12" viewBox="0 0 12 12" fill="none" xmlns="http://www.w3.org/2000/svg">
<path d="M5.80052 0.411245C7.06613 0.409501 8.29369 0.832562 9.27644 1.60917C9.3385 1.65812 9.38892 1.71959 9.42425 1.78934C9.45957 1.85909 9.47895 1.93546 9.48105 2.01321C9.48315 2.09095 9.46792 2.16822 9.43641 2.23968C9.40491 2.31114 9.35787 2.37511 9.29854 2.42716L8.4641 3.16013C8.36931 3.24325 8.24791 3.29189 8.12049 3.29777C7.99308 3.30366 7.86749 3.26643 7.76505 3.19242C7.20318 2.79026 6.52541 2.57084 5.82813 2.56537C5.13084 2.5599 4.44953 2.76866 3.88108 3.16195C3.31264 3.55525 2.88598 4.11306 2.66179 4.75607C2.43761 5.39908 2.4273 6.09456 2.63233 6.7436C2.83736 7.39265 3.2473 7.96222 3.80386 8.37133C4.36041 8.78044 5.03525 9.00826 5.73241 9.0224C6.42956 9.03653 7.11355 8.83626 7.68711 8.45006C8.26066 8.06387 8.69459 7.5114 8.92719 6.87123L8.92774 6.86908H6.90519C6.76993 6.86893 6.63942 6.82048 6.53839 6.7329C6.43736 6.64532 6.37282 6.5247 6.357 6.39389L6.35313 6.33092V5.25462C6.35313 5.11189 6.41135 4.97501 6.51498 4.87409C6.61862 4.77316 6.75918 4.71647 6.90574 4.71647H10.7436C10.8797 4.71646 11.0109 4.76532 11.1123 4.85369C11.2136 4.94207 11.2779 5.06374 11.2929 5.19542C11.315 5.39292 11.3266 5.59204 11.3266 5.79277C11.3266 8.76499 8.85258 11.1743 5.80052 11.1743C2.74845 11.1743 0.274414 8.76499 0.274414 5.79277C0.274414 2.82055 2.74845 0.411245 5.80052 0.411245Z" fill="black"/>
</svg>
